<svg width="272" height="300" viewBox="0 0 272 300" fill="none" xmlns="http://www.w3.org/2000/svg">
<g filter="url(#filter0_d_21_76)">
<path d="M91.4286 34C85.7454 34 80.2949 36.2577 76.2763 40.2763C72.2576 44.2949 70 49.7454 70 55.4286V212.571C70 218.255 72.2576 223.705 76.2763 227.724C80.2949 231.742 85.7454 234 91.4286 234H220C225.683 234 231.134 231.742 235.152 227.724C239.171 223.705 241.429 218.255 241.429 212.571V98.2857C241.43 97.3471 241.247 96.4173 240.889 95.5496C240.531 94.6818 240.006 93.8931 239.343 93.2286L182.2 36.0857C181.535 35.4228 180.747 34.8974 179.879 34.5396C179.011 34.1817 178.081 33.9983 177.143 34H91.4286Z" fill="#B01328"/>
<path d="M146.614 105.386C145.875 105.38 145.143 105.521 144.459 105.801C143.775 106.082 143.154 106.495 142.632 107.017C142.109 107.54 141.696 108.161 141.416 108.845C141.136 109.528 140.994 110.261 141 111V133.286H118.714C117.978 133.282 117.248 133.424 116.567 133.704C115.886 133.984 115.267 134.397 114.746 134.917C114.225 135.438 113.813 136.057 113.533 136.738C113.253 137.419 113.111 138.149 113.114 138.886V157.1C113.114 160.2 115.614 162.7 118.714 162.7H141V184.986C141 188.086 143.514 190.6 146.6 190.6H164.829C165.565 190.604 166.295 190.461 166.976 190.181C167.657 189.901 168.276 189.489 168.797 188.968C169.318 188.447 169.73 187.829 170.01 187.147C170.29 186.466 170.432 185.736 170.429 185V162.714H192.714C193.452 162.718 194.183 162.575 194.865 162.294C195.547 162.013 196.167 161.6 196.688 161.077C197.209 160.555 197.621 159.935 197.9 159.252C198.179 158.569 198.32 157.838 198.314 157.1V138.886C198.318 138.149 198.176 137.419 197.896 136.738C197.616 136.057 197.203 135.438 196.683 134.917C196.162 134.397 195.543 133.984 194.862 133.704C194.181 133.424 193.451 133.282 192.714 133.286H170.429V111C170.434 110.262 170.293 109.531 170.014 108.848C169.735 108.165 169.323 107.545 168.802 107.022C168.281 106.5 167.662 106.087 166.979 105.806C166.297 105.525 165.566 105.382 164.829 105.386H146.614Z" fill="white"/>
</g>
<defs>
<filter id="filter0_d_21_76" x="0" y="0" width="271.428" height="300" filterUnits="userSpaceOnUse" color-interpolation-filters="sRGB">
<feFlood flood-opacity="0" result="BackgroundImageFix"/>
<feColorMatrix in="SourceAlpha" type="matrix" values="0 0 0 0 0 0 0 0 0 0 0 0 0 0 0 0 0 0 127 0" result="hardAlpha"/>
<feOffset dx="-20" dy="16"/>
<feGaussianBlur stdDeviation="25"/>
<feComposite in2="hardAlpha" operator="out"/>
<feColorMatrix type="matrix" values="0 0 0 0 0.383845 0 0 0 0 0.383845 0 0 0 0 0.383845 0 0 0 0.25 0"/>
<feBlend mode="normal" in2="BackgroundImageFix" result="effect1_dropShadow_21_76"/>
<feBlend mode="normal" in="SourceGraphic" in2="effect1_dropShadow_21_76" result="shape"/>
</filter>
</defs>
</svg>
